<svg width="188" height="191" viewBox="0 0 188 191" fill="none" xmlns="http://www.w3.org/2000/svg">
<path d="M36.2895 132.09C36.3842 129.725 36.8552 127.944 37.6709 125.754C37.4057 125.69 37.1431 125.614 36.8855 125.539C36.0698 125.304 35.2881 125.045 34.5406 124.758C32.9092 128.786 27.9165 141.697 12.9434 145.448V147.956C21.411 147.949 35.2275 147.945 46.905 147.938V145.069C45.6461 144.793 44.5412 144.478 43.7634 144.122C39.1091 141.969 36.0963 137.199 36.2895 132.091V132.09Z" fill="#2A2A2A"/>
<path d="M41.9688 106.394C42.6708 107.227 43.4941 107.97 44.4386 108.611L56.082 78.9659C54.8117 79.227 53.5705 79.5764 52.3722 80.004L41.97 106.394H41.9688Z" fill="#2A2A2A"/>
<path d="M174.978 115.183C176.522 89.5809 155.358 76.6553 129.429 75.6665C164.808 71.4399 171.535 30.4409 144.941 15.5881C138.653 12.0755 127.401 9.45959 116.506 9.45959H79.4889L57.7514 66.4983H60.9183C65.2026 56.1646 72.0023 38.0287 72.0023 38.0287L84.2391 72.4275C84.2391 72.4275 68.5917 69.5354 53.4797 69.9554C38.9056 70.3603 24.8201 76.8357 21.7278 95.9566C20.2113 105.335 26.1195 123.673 48.0463 122.548C68.3556 121.506 93.2801 99.4163 93.2801 99.4163L93.3028 99.3457C97.8145 111.252 111.25 147.93 111.25 147.93L130.64 147.911C134.389 147.907 138.138 147.647 141.837 147.047C167.812 142.831 174.299 126.415 174.976 115.185L174.978 115.183ZM111.077 12.8158C111.126 12.8158 111.174 12.8158 111.223 12.8158C126.466 12.9193 139.381 24.4499 140.811 39.6104C141.544 47.3912 140.057 55.4974 136.749 62.0069C133.184 69.0221 125.802 73.4769 117.951 74.0886C113.564 74.4304 108.454 74.7155 105.657 74.4796C103.311 68.4154 97.6137 52.9496 92.5427 39.1866C87.8113 26.3456 97.3788 12.7402 111.078 12.8158H111.077ZM130.791 144.593C130.743 144.567 109.196 84.4487 108.227 82.1166L92.0969 96.2152C92.1159 96.2631 77.0392 107.297 72.4076 109.982C68.8165 112.064 64.9349 113.618 60.8766 114.497C52.3521 116.343 47.0904 114.478 47.0904 114.478C39.6683 112.032 36.4244 106.922 35.288 101.93C33.5012 94.0748 36.3789 85.8437 42.5611 80.6712C43.1887 80.1465 43.9072 79.6344 44.6635 79.1489C49.0438 76.3362 54.0845 74.7394 59.2717 74.2841C74.3067 72.9661 82.83 76.2731 95.9532 76.9757C116.525 78.0755 114.483 76.1369 127.771 78.6052C129.78 78.9786 131.669 79.4932 134.154 80.2373C149.988 84.9822 154.937 101.564 154.937 111.574C154.937 122.494 152.017 144.048 130.789 144.591L130.791 144.593Z" fill="#2A2A2A"/>
<path d="M91.1787 91.6077L103.649 81.3018L87.0762 79.9069L91.1787 91.6077Z" fill="#2A2A2A"/>
<path d="M41.3971 171.14H12.9434V172.037H41.3971V171.14Z" fill="#2A2A2A"/>
<path d="M175.057 171.14H146.604V172.037H175.057V171.14Z" fill="#2A2A2A"/>
<path d="M56.4374 162.082L49.7324 178.039H51.7477L53.3955 174.013H59.31L60.8922 178.039H63.2471L56.5636 162.082H56.4361H56.4374ZM54.1241 172.232L56.4121 166.64L58.6105 172.232H54.1241Z" fill="#2A2A2A"/>
<path d="M71.925 168.926C71.0904 168.926 70.3555 169.121 69.7191 169.509C69.1155 169.877 68.6761 170.368 68.3907 170.972L68.2556 169.266H66.4941V178.039H68.4677V173.927C68.4677 173.278 68.5839 172.705 68.8175 172.211C69.0511 171.716 69.3731 171.328 69.7835 171.045C70.1939 170.763 70.6535 170.622 71.1624 170.622C71.7142 170.622 72.1207 170.773 72.3821 171.077C72.6435 171.381 72.7811 171.773 72.7963 172.252V178.038H74.7901V171.554C74.7762 170.777 74.5035 170.144 73.9731 169.657C73.4428 169.17 72.7609 168.926 71.9263 168.926H71.925Z" fill="#2A2A2A"/>
<path d="M82.52 175.529L79.6903 169.266H77.4629L81.5225 177.765L79.8393 181.54H81.7851L87.1365 169.266H85.3119L82.52 175.529Z" fill="#2A2A2A"/>
<path d="M97.5747 170.156C97.5204 170.134 97.4623 170.117 97.4067 170.097C97.4092 170.096 97.413 170.094 97.4156 170.093C98.0734 169.754 98.5861 169.287 98.9535 168.694C99.321 168.102 99.5053 167.402 99.5053 166.597C99.5053 165.269 99.0634 164.29 98.1795 163.662C97.2956 163.033 96.0821 162.719 94.5416 162.719H90.5957V178.04H95.1566C95.8069 178.04 96.437 177.96 97.0443 177.797C97.6529 177.634 98.1972 177.381 98.6783 177.034C99.1594 176.688 99.5407 176.243 99.8235 175.7C100.106 175.156 100.248 174.503 100.248 173.74C100.248 172.906 100.007 172.186 99.5268 171.578C99.0457 170.97 98.3954 170.497 97.5747 170.158V170.156ZM92.6527 164.689H94.6477C95.4824 164.689 96.1465 164.873 96.6415 165.24C97.1365 165.607 97.384 166.193 97.384 166.999C97.384 167.677 97.1933 168.253 96.8107 168.726C96.4294 169.2 95.8132 169.436 94.9647 169.436H92.6527V164.689ZM97.7338 175.094C97.4585 175.447 97.0835 175.708 96.61 175.879C96.1352 176.048 95.6162 176.132 95.0505 176.132H92.6527V171.406H94.923C95.4457 171.406 95.9546 171.481 96.4509 171.629C96.9458 171.778 97.3524 172.022 97.6706 172.36C97.9888 172.699 98.1479 173.166 98.1479 173.758C98.1479 174.296 98.0103 174.741 97.7338 175.093V175.094Z" fill="#2A2A2A"/>
<path d="M110.687 169.52C109.966 169.111 109.124 168.906 108.162 168.906C107.199 168.906 106.394 169.112 105.658 169.52C104.923 169.93 104.346 170.488 103.929 171.194C103.512 171.901 103.303 172.691 103.303 173.568C103.303 174.515 103.511 175.337 103.929 176.037C104.346 176.736 104.919 177.281 105.648 177.668C106.376 178.057 107.207 178.251 108.14 178.251C109.073 178.251 109.947 178.045 110.676 177.637C111.404 177.227 111.966 176.666 112.363 175.952C112.759 175.238 112.956 174.443 112.956 173.568C112.956 172.693 112.758 171.901 112.363 171.194C111.966 170.488 111.408 169.929 110.687 169.52ZM110.602 175.126C110.361 175.585 110.025 175.949 109.595 176.217C109.163 176.485 108.672 176.619 108.12 176.619C107.568 176.619 107.119 176.485 106.688 176.217C106.256 175.949 105.914 175.585 105.659 175.126C105.404 174.666 105.278 174.154 105.278 173.589C105.278 173.024 105.401 172.534 105.649 172.075C105.896 171.615 106.236 171.245 106.667 170.962C107.098 170.68 107.582 170.538 108.12 170.538C108.658 170.538 109.163 170.676 109.595 170.952C110.025 171.227 110.363 171.595 110.602 172.054C110.842 172.513 110.964 173.026 110.964 173.591C110.964 174.156 110.844 174.668 110.602 175.127V175.126Z" fill="#2A2A2A"/>
<path d="M123.671 170.471C123.325 170.002 122.864 169.626 122.281 169.35C121.651 169.054 120.99 168.905 120.297 168.905C119.435 168.905 118.656 169.089 117.964 169.456C117.27 169.823 116.722 170.353 116.32 171.045C115.917 171.738 115.715 172.571 115.715 173.546C115.715 174.521 115.906 175.302 116.288 176.016C116.669 176.73 117.19 177.281 117.848 177.668C118.505 178.057 119.238 178.251 120.043 178.251C120.849 178.251 121.621 178.077 122.271 177.731C122.816 177.44 123.273 177.079 123.65 176.654V178.039H125.622V161.636H123.67V170.471H123.671ZM123.65 174.288C123.536 174.755 123.345 175.157 123.076 175.496C122.807 175.836 122.468 176.101 122.057 176.291C121.647 176.481 121.18 176.577 120.657 176.577C120.134 176.577 119.646 176.44 119.192 176.164C118.74 175.889 118.379 175.52 118.11 175.061C117.841 174.602 117.707 174.084 117.707 173.504C117.707 172.923 117.841 172.387 118.11 171.936C118.379 171.484 118.736 171.127 119.182 170.865C119.628 170.604 120.119 170.473 120.657 170.473C121.152 170.473 121.602 170.567 122.004 170.759C122.407 170.949 122.753 171.204 123.044 171.522C123.333 171.84 123.535 172.211 123.648 172.635V174.288H123.65Z" fill="#2A2A2A"/>
<path d="M133.65 175.529L130.82 169.266H128.592L132.653 177.765L130.969 181.54H132.915L138.267 169.266H136.442L133.65 175.529Z" fill="#2A2A2A"/>
</svg>
